<svg width="22" height="22" viewBox="0 0 22 22" fill="none" xmlns="http://www.w3.org/2000/svg">
<path fill-rule="evenodd" clip-rule="evenodd" d="M15.334 5.13574H13.9312V16.8642H15.334V5.13574ZM19.106 5.13574H17.7031V16.8642H19.106V5.13574ZM8.61333 5.62744H7.02506L2.89391 16.8642H4.45077L5.43416 14.0615H10.1716L11.1714 16.8642H12.728L8.61333 5.62744ZM7.70741 7.58751C7.75904 7.41327 7.79612 7.26741 7.8178 7.1509C7.83674 7.26687 7.86901 7.4122 7.91407 7.586L7.91468 7.58797C8.00234 7.87286 8.10649 8.17979 8.22686 8.5081L9.72957 12.8062H5.87623L7.39519 8.50783C7.51557 8.1795 7.61975 7.87242 7.70741 7.58751Z" fill="#303030"/>
</svg>
