<svg width="22" height="22" viewBox="0 0 22 22" fill="none" xmlns="http://www.w3.org/2000/svg">
<path fill-rule="evenodd" clip-rule="evenodd" d="M16.728 5.60254H15.1976V18.3972H16.728V5.60254ZM20.8429 5.60254H19.3125V18.3972H20.8429V5.60254ZM9.39635 6.13893H7.6637L3.15698 18.3972H4.85538L5.92817 15.3398H11.0963L12.1869 18.3972H13.885L9.39635 6.13893ZM8.40808 8.2772C8.4644 8.08712 8.50485 7.928 8.5285 7.80089C8.54916 7.92741 8.58437 8.08595 8.63353 8.27555L8.63419 8.2777C8.72982 8.58848 8.84343 8.92332 8.97475 9.28147L10.6141 13.9703H6.41042L8.06748 9.28118C8.1988 8.92301 8.31245 8.588 8.40808 8.2772Z" fill="#303030"/>
</svg>
