<svg width="22" height="22" viewBox="0 0 22 22" fill="none" xmlns="http://www.w3.org/2000/svg">
<path d="M19.9818 5.0186L20.156 3.7265C20.2581 2.96877 19.7255 2.27213 18.9675 2.17206C18.6474 2.1298 18.3231 2.1298 18.003 2.17206L17.8738 2.18911C17.2016 2.27787 16.7459 2.91861 16.8828 3.58276L17.1858 5.05248C17.2593 5.40884 17.51 5.70279 17.8503 5.83152L17.8759 5.84119C18.3437 6.01815 18.8601 6.01815 19.3279 5.84119C19.6804 5.70787 19.9314 5.39206 19.9818 5.0186Z" stroke="#303030" stroke-width="1.5"/>
<path d="M18.2488 7.84106C15.5135 7.94989 14.3483 13.0242 14.1823 16.1583C12.0526 15.4801 10.3733 14.9347 9.13521 14.9598C5.36336 15.0363 5.34328 18.6946 6.41192 19.8916H16.3393L19.6148 9.98948C19.8237 9.35774 19.9324 8.58593 19.4057 8.1793C19.0955 7.93978 18.6866 7.82364 18.2488 7.84106Z" stroke="#303030" stroke-width="1.5"/>
<path d="M8.08884 10.8821C7.13716 10.4741 6.09668 10.5061 5.29064 11.0675C4.4846 11.6289 4.09381 12.5938 4.14653 13.6279" stroke="#303030" stroke-width="1.5" stroke-linecap="round"/>
<path d="M2.0566 12.9087C1.79375 11.4297 2.41729 9.83593 3.77455 8.89061C5.13181 7.94529 6.8429 7.91301 8.13904 8.67234" stroke="#303030" stroke-width="1.5" stroke-linecap="round"/>
</svg>
