<svg width="25" height="22" viewBox="0 0 25 22" fill="none" xmlns="http://www.w3.org/2000/svg">
<path d="M22.7731 5.47506L22.9631 4.06549C23.0746 3.23888 22.4935 2.47891 21.6666 2.36974C21.3174 2.32364 20.9636 2.32364 20.6144 2.36974L20.4735 2.38835C19.7401 2.48517 19.2431 3.18416 19.3924 3.90869L19.7229 5.51202C19.8031 5.90077 20.0766 6.22145 20.4479 6.36188L20.4757 6.37243C20.9861 6.56548 21.5494 6.56548 22.0598 6.37243C22.4443 6.22698 22.7181 5.88247 22.7731 5.47506Z" stroke="#303030" stroke-width="1.5"/>
<path d="M20.8825 8.55411C17.8986 8.67283 16.6274 14.2085 16.4464 17.6274C14.1231 16.8876 12.2911 16.2926 10.9405 16.32C6.82572 16.4035 6.80381 20.3944 7.9696 21.7001H18.7994L22.3727 10.8978C22.6007 10.2087 22.7192 9.36669 22.1447 8.92309C21.8062 8.66181 21.3602 8.5351 20.8825 8.55411Z" stroke="#303030" stroke-width="1.5"/>
<path d="M9.79888 11.8713C8.76068 11.4262 7.62561 11.4612 6.7463 12.0736C5.86698 12.686 5.44067 13.7386 5.49817 14.8667" stroke="#303030" stroke-width="1.5" stroke-linecap="round"/>
<path d="M3.21822 14.0824C2.93148 12.4689 3.6117 10.7303 5.09235 9.69903C6.573 8.66777 8.43964 8.63255 9.8536 9.46092" stroke="#303030" stroke-width="1.5" stroke-linecap="round"/>
</svg>
