<svg width="24" height="24" viewBox="0 0 24 24" fill="none" xmlns="http://www.w3.org/2000/svg">
<path d="M5.30029 14.387L6.36861 10.7411C6.59608 9.96475 7.21911 9.36789 8.00448 9.17392V9.17392C10.6289 8.52572 13.3717 8.52572 15.9961 9.17392V9.17392C16.7815 9.36789 17.4045 9.96475 17.632 10.7411L18.7003 14.387" stroke="#303030" stroke-width="1.5"/>
<path d="M5 14.3872H19M5 14.3872H2.5M5 14.3872L4.92229 14.5426C4.64458 15.098 4.5 15.7105 4.5 16.3315V22.3872H7.5V20.3872H16.5V22.3872H19.5V16.3315C19.5 15.7105 19.3554 15.098 19.0777 14.5426L19 14.3872M19 14.3872H21.5" stroke="#303030" stroke-width="1.5"/>
<circle cx="7.5" cy="17.3872" r="1" fill="#303030"/>
<circle cx="16.5" cy="17.3872" r="1" fill="#303030"/>
<path d="M16.1501 6.38721C15.2038 4.86915 13.6971 3.88721 12.0001 3.88721C10.3031 3.88721 8.79643 4.86915 7.8501 6.38721" stroke="#303030" stroke-width="1.5" stroke-linecap="round"/>
<path d="M5.59717 4.88721C6.68489 2.53094 9.14251 0.887207 12 0.887207C14.8576 0.887207 17.3152 2.53094 18.4029 4.88721" stroke="#303030" stroke-width="1.5" stroke-linecap="round"/>
</svg>
