<svg width="24" height="24" viewBox="0 0 24 24" fill="none" xmlns="http://www.w3.org/2000/svg">
<path d="M14.2533 8.5645L14.9156 8.2127L14.2533 8.5645C14.5062 9.04075 14.9646 9.37379 15.4957 9.46719L19.7632 10.2176C19.9606 10.2523 20.0389 10.4935 19.8996 10.6376L16.8883 13.7531C16.5135 14.1408 16.3384 14.6797 16.4137 15.2137L17.0187 19.5042C17.0467 19.7026 16.8415 19.8517 16.6615 19.7637L12.7679 17.8625C12.2833 17.6259 11.7167 17.6259 11.2321 17.8625L7.33858 19.7637C7.15851 19.8517 6.95335 19.7026 6.98133 19.5042L7.58634 15.2137C7.66164 14.6797 7.48655 14.1408 7.11177 13.7531L4.1004 10.6376C3.96113 10.4935 4.0395 10.2523 4.23686 10.2176L8.50434 9.46719C9.03545 9.37379 9.49384 9.04075 9.74679 8.5645L11.7792 4.73778C11.8732 4.5608 12.1268 4.5608 12.2208 4.73778L14.2533 8.5645Z" stroke="#303030" stroke-width="1.5"/>
<path d="M15.7036 5.20966L18.9973 1.91591" stroke="#303030" stroke-width="1.5" stroke-linecap="round"/>
<path d="M18.095 6.57471L19.5539 5.11585" stroke="#303030" stroke-width="1.5" stroke-linecap="round"/>
<path d="M2.44588 18.4675L4.27569 16.6379" stroke="#303030" stroke-width="1.5" stroke-linecap="round"/>
</svg>
