<svg width="24" height="24" viewBox="0 0 24 24" fill="none" xmlns="http://www.w3.org/2000/svg">
<path d="M11.0338 21.9038C13.4636 21.9038 15.4334 19.9341 15.4334 17.5043C15.4334 16.0143 14.6927 14.6974 13.5595 13.9015V4.78068C13.5595 3.71523 12.891 2.76437 11.8883 2.4039C11.336 2.20531 10.7317 2.20531 10.1793 2.4039C9.17668 2.76437 8.50809 3.71523 8.50809 4.78068V13.9015C7.37491 14.6974 6.63428 16.0143 6.63428 17.5043C6.63428 19.9341 8.60402 21.9038 11.0338 21.9038Z" stroke="#303030" stroke-width="1.5"/>
<circle cx="11.033" cy="17.5039" r="1.76318" stroke="#303030" stroke-width="1.5"/>
<path d="M11.0337 15.6797V7.7998" stroke="#303030" stroke-width="1.5"/>
<path d="M16 7.94922H20" stroke="#303030" stroke-width="1.5" stroke-linecap="round"/>
<path d="M16 10.4492H19.2114" stroke="#303030" stroke-width="1.5" stroke-linecap="round"/>
</svg>
