<svg width="40" height="22" viewBox="0 0 40 22" fill="none" xmlns="http://www.w3.org/2000/svg">
<path d="M3.75987 9.6484C3.66097 9.41765 3.56757 9.1924 3.47967 8.97263C3.40275 8.74188 3.33133 8.53311 3.2654 8.34631C3.19947 8.15951 3.14453 8.00018 3.10058 7.86833C3.05662 7.72548 3.02915 7.62109 3.01817 7.55516H2.96872C2.97971 7.6101 2.9852 7.71449 2.9852 7.86833C2.99619 8.01117 3.00168 8.18698 3.00168 8.39576C3.01267 8.59354 3.01817 8.81331 3.01817 9.05504C3.02915 9.29678 3.03465 9.53852 3.03465 9.78026V16.6039H1.66663V5.396H3.41374L6.67721 13.5217C6.79808 13.8184 6.90247 14.1041 6.99038 14.3788C7.08927 14.6425 7.13872 14.8348 7.13872 14.9557H7.18816C7.18816 14.8348 7.23212 14.6425 7.32002 14.3788C7.40793 14.1041 7.51231 13.8184 7.63318 13.5217L10.8967 5.396H12.6438V16.6039H11.2757V9.78026C11.2757 9.53852 11.2757 9.29678 11.2757 9.05504C11.2867 8.81331 11.2922 8.59354 11.2922 8.39576C11.3032 8.18698 11.3087 8.01117 11.3087 7.86833C11.3197 7.71449 11.3307 7.6101 11.3417 7.55516H11.2922C11.2812 7.62109 11.2538 7.72548 11.2098 7.86833C11.1659 8.00018 11.1109 8.15951 11.045 8.34631C10.9791 8.53311 10.9022 8.74188 10.8142 8.97263C10.7373 9.1924 10.6494 9.41765 10.5505 9.6484L7.798 16.6039H6.51239L3.75987 9.6484Z" fill="#00428E"/>
<path d="M18.2182 5.396H19.7511L23.8551 16.6039H22.3882L21.3828 13.7854H16.5535L15.5646 16.6039H14.0977L18.2182 5.396ZM16.9656 12.6152H20.9708L19.4379 8.23093C19.317 7.90129 19.2127 7.59362 19.1248 7.30793C19.0478 7.01125 19.0094 6.80248 19.0094 6.68161H18.9599C18.9599 6.80248 18.916 7.01125 18.8281 7.30793C18.7402 7.59362 18.6358 7.90129 18.5149 8.23093L16.9656 12.6152Z" fill="#00428E"/>
<path d="M25.3091 5.396H26.6771V16.6039H25.3091V5.396Z" fill="#00428E"/>
<path d="M29.5813 5.396H30.7845L36.1247 13.0108C36.3445 13.3075 36.5368 13.5876 36.7016 13.8514C36.8664 14.1151 36.9708 14.3074 37.0148 14.4282H37.0642C37.0312 14.3074 37.0038 14.0876 36.9818 13.769C36.9708 13.4503 36.9653 13.1042 36.9653 12.7306V5.396H38.3333V16.6039H37.1301L31.7899 8.98912C31.5701 8.69244 31.3778 8.41224 31.213 8.14852C31.0482 7.88481 30.9438 7.69252 30.8999 7.57165H30.8504C30.8834 7.69252 30.9054 7.91228 30.9163 8.23093C30.9383 8.54959 30.9493 8.89572 30.9493 9.26931V16.6039H29.5813V5.396Z" fill="#00428E"/>
</svg>
